# xmcd
#
# Track frame offsets:
# 150
# 17199
# 29600
# 45454
# 57558
# 76369
# 87722
# 100877
# 115807
# 128734
# 144046
# 159969
# 173344
# 186634
# 199223
# 211221
# 224257
# 239464
# 249608
# 264233
#
# Disc length: 3679 seconds
#
#
# Revision: 0
# Processed by: cddbd v1.5.2PL0 Copyright (c) Steve Scherf et al.
# Submitted via: FreeRIP 2.951 
#
DISCID=1a0e5d14
DTITLE=Radio Formula - Tango voz y sentimiento
DYEAR=1900
DGENRE=Tango
TTITLE0=Carlos gardel - Volver
TTITLE1=Instrumental - Adios pampa mia
TTITLE2=Carlos Gardel - Cuesta abajo
TTITLE3=Instrumental - Barrio reo
TTITLE4=Carlos gardel - el dia que me quieras
TTITLE5=Instrumental - soy asi
TTITLE6=Carlos gardel - La cumparsita
TTITLE7=Instrumental - ladrillo
TTITLE8=Carlos gardel - Caminito
TTITLE9=Carlos gardel - Yira yira
TTITLE10=Jorge che sarelli - Uno
TTITLE11=Carlos gardel - padre nuestro
TTITLE12=Carlos gardel - A media luz
TTITLE13=Instrumental - mis buenos aires querido
TTITLE14=Carlos gardel - Noche de reyes
TTITLE15=Jorge che sarelli - Volvio una noche
TTITLE16=Carlos gardel - mano a mano
TTITLE17=Instrumental - El choclo
TTITLE18=Carlos gardel - Silencioo
TTITLE19=Carlos gardel - Adios muchachos
EXTD=
EXTT0=
EXTT1=
EXTT2=
EXTT3=
EXTT4=
EXTT5=
EXTT6=
EXTT7=
EXTT8=
EXTT9=
EXTT10=
EXTT11=
EXTT12=
EXTT13=
EXTT14=
EXTT15=
EXTT16=
EXTT17=
EXTT18=
EXTT19=
PLAYORDER=
